<svg width="18" height="18" viewBox="0 0 18 18" fill="none" xmlns="http://www.w3.org/2000/svg">
<path d="M7.5 15.5C7.5 16.6045 7.1045 17.5 6 17.5H2.5C0.5 17.5 0.5 10.5 2.5 10.5H6C7.1045 10.5 7.5 11.3955 7.5 12.5V15.5Z" fill="#553788"/>
<path d="M17 16.5H16.5V11.5H17C17.1326 11.5 17.2598 11.4473 17.3536 11.3536C17.4473 11.2598 17.5 11.1326 17.5 11C17.5 10.8674 17.4473 10.7402 17.3536 10.6464C17.2598 10.5527 17.1326 10.5 17 10.5H5C3 10.5 3 17.5 5 17.5H17C17.1326 17.5 17.2598 17.4473 17.3536 17.3536C17.4473 17.2598 17.5 17.1326 17.5 17C17.5 16.8674 17.4473 16.7402 17.3536 16.6464C17.2598 16.5527 17.1326 16.5 17 16.5Z" fill="#9266CC"/>
<path d="M17.086 16.5H5.5C4.5 16.5 4.5 11.5 5.5 11.5H17.086C17.638 11.5 17.638 16.5 17.086 16.5Z" fill="#CCD6DD"/>
<path d="M5.75 12.5H17.425C17.3575 11.9125 17.245 11.5 17.086 11.5H5.5C4.6745 11.5 4.531 14.904 5.0685 16.094C4.8725 14.6145 5.0995 12.5 5.75 12.5Z" fill="#99AAB5"/>
<path d="M6 4C6 4.53043 5.78929 5.03914 5.41421 5.41421C5.03914 5.78929 4.53043 6 4 6H2C0 6 0 0.5 2 0.5H4C4.53043 0.5 5.03914 0.710714 5.41421 1.08579C5.78929 1.46086 6 1.96957 6 2.5V4Z" fill="#226699"/>
<path d="M15.5 5H15V1.5H15.5C15.6326 1.5 15.7598 1.44732 15.8536 1.35355C15.9473 1.25979 16 1.13261 16 1C16 0.867392 15.9473 0.740215 15.8536 0.646447C15.7598 0.552678 15.6326 0.5 15.5 0.5H3.5C1.5 0.5 1.5 6 3.5 6H15.5C15.6326 6 15.7598 5.94732 15.8536 5.85355C15.9473 5.75979 16 5.63261 16 5.5C16 5.36739 15.9473 5.24021 15.8536 5.14645C15.7598 5.05268 15.6326 5 15.5 5Z" fill="#55ACEE"/>
<path d="M15.586 5H4C3 5 3 1.5 4 1.5H15.586C16.138 1.5 16.138 5 15.586 5Z" fill="#CCD6DD"/>
<path d="M4 2.5H15.9625C15.9055 1.9375 15.7805 1.5 15.586 1.5H4C3.4035 1.5 3.1655 2.7445 3.281 3.75C3.359 3.071 3.5965 2.5 4 2.5Z" fill="#99AAB5"/>
<path d="M10 8.5C10 9.03043 9.78929 9.53914 9.41421 9.91421C9.03914 10.2893 8.53043 10.5 8 10.5H3C1 10.5 1 6 3 6H8C8.53043 6 9.03914 6.21071 9.41421 6.58579C9.78929 6.96086 10 7.46957 10 8V8.5Z" fill="#F4900C"/>
<path d="M17.5 9.5H17V7H17.5C17.6326 7 17.7598 6.94732 17.8536 6.85355C17.9473 6.75979 18 6.63261 18 6.5C18 6.36739 17.9473 6.24021 17.8536 6.14645C17.7598 6.05268 17.6326 6 17.5 6H7.5C5.5 6 5.5 10.5 7.5 10.5H17.5C17.6326 10.5 17.7598 10.4473 17.8536 10.3536C17.9473 10.2598 18 10.1326 18 10C18 9.86739 17.9473 9.74021 17.8536 9.64645C17.7598 9.55268 17.6326 9.5 17.5 9.5Z" fill="#FFAC33"/>
<path d="M17.586 9.5H8C7 9.5 7 7 8 7H17.586C18.138 7 18.138 9.5 17.586 9.5Z" fill="#CCD6DD"/>
<path d="M8 8H17.992C17.9595 7.469 17.825 7 17.586 7H8C7.363 7 7.1335 8.0135 7.3085 8.75C7.4075 8.3305 7.637 8 8 8Z" fill="#99AAB5"/>
</svg>
